<?xml version="1.0" encoding="UTF-8" standalone="no"?>
<!-- Created with Inkscape (http://www.inkscape.org/) -->

<svg
   xmlns:dc="http://purl.org/dc/elements/1.1/"
   xmlns:cc="http://creativecommons.org/ns#"
   xmlns:rdf="http://www.w3.org/1999/02/22-rdf-syntax-ns#"
   xmlns:svg="http://www.w3.org/2000/svg"
   xmlns="http://www.w3.org/2000/svg"
   xmlns:sodipodi="http://sodipodi.sourceforge.net/DTD/sodipodi-0.dtd"
   xmlns:inkscape="http://www.inkscape.org/namespaces/inkscape"
   width="210mm"
   height="297mm"
   viewBox="0 0 744.09448819 1052.3622047"
   id="svg6609"
   version="1.1"
   inkscape:version="0.91 r13725"
   sodipodi:docname="star.svg">
  <defs
     id="defs6611" />
  <sodipodi:namedview
     id="base"
     pagecolor="#ffffff"
     bordercolor="#666666"
     borderopacity="1.0"
     inkscape:pageopacity="0.0"
     inkscape:pageshadow="2"
     inkscape:zoom="0.98994949"
     inkscape:cx="471.19593"
     inkscape:cy="466.62969"
     inkscape:document-units="px"
     inkscape:current-layer="layer1"
     showgrid="false"
     inkscape:window-width="1680"
     inkscape:window-height="986"
     inkscape:window-x="0"
     inkscape:window-y="27"
     inkscape:window-maximized="1" />
  <metadata
     id="metadata6614">
    <rdf:RDF>
      <cc:Work
         rdf:about="">
        <dc:format>image/svg+xml</dc:format>
        <dc:type
           rdf:resource="http://purl.org/dc/dcmitype/StillImage" />
        <dc:title></dc:title>
      </cc:Work>
    </rdf:RDF>
  </metadata>
  <g
     inkscape:label="Capa 1"
     inkscape:groupmode="layer"
     id="layer1">
    <rect
       style="opacity:1;fill:#808080;stroke:none"
       id="rect7531"
       width="847.51801"
       height="770.7464"
       x="-18.182747"
       y="139.1843"
       ry="13.6335" />
    <circle
       r="162.12949"
       cy="529.10315"
       cx="351.53308"
       id="circle6729"
       style="fill:#ffffff;stroke:none;opacity:0.334" />
    <circle
       style="fill:#ffffff;stroke:none"
       id="path6727"
       cx="351.53308"
       cy="529.10315"
       r="123.74369" />
    <g
       id="g6497"
       transform="matrix(1.8888825,0,0,1.8888825,-853.15252,-816.46967)"
       style="fill:#f5f5f5">
      <g
         transform="matrix(1.6922788,0,0,1.6922788,-41.023452,-553.03127)"
         id="g6160"
         style="fill:#f5f5f5">
        <path
           inkscape:connector-curvature="0"
           style="fill:#f5f5f5"
           d="m 401.28402,714.95931 -4.15625,7.19922 -4.15625,7.19727 8.3125,0 8.31054,0 -4.15429,-7.19727 -4.15625,-7.19922 z m 0,1.85352 2.85937,4.95703 2.86133,4.95508 -5.7207,0 -5.72266,0 2.86133,-4.95508 2.86133,-4.95703 z"
           id="path6162" />
        <path
           id="path6164"
           d="m 401.28402,780.53394 -4.15625,-7.19922 -4.15625,-7.19727 8.3125,0 8.31054,0 -4.15429,7.19727 -4.15625,7.19922 z m 0,-1.85352 2.85937,-4.95703 2.86133,-4.95508 -5.7207,0 -5.72266,0 2.86133,4.95508 2.86133,4.95703 z"
           style="fill:#f5f5f5"
           inkscape:connector-curvature="0" />
        <path
           inkscape:connector-curvature="0"
           style="fill:#f5f5f5"
           d="m 368.61634,746.90327 7.19922,-4.15625 7.19727,-4.15625 0,8.3125 0,8.31054 -7.19727,-4.15429 -7.19922,-4.15625 z m 1.85352,0 4.95703,2.85937 4.95508,2.86133 0,-5.7207 0,-5.72266 -4.95508,2.86132 -4.95703,2.86134 z"
           id="path6166" />
        <path
           id="path6168"
           d="m 433.61594,747.57085 -7.19922,-4.15625 -7.19727,-4.15625 0,8.3125 0,8.31054 7.19727,-4.15429 7.19922,-4.15625 z m -1.85352,0 -4.95703,2.85937 -4.95508,2.86133 0,-5.7207 0,-5.72266 4.95508,2.86132 4.95703,2.86134 z"
           style="fill:#f5f5f5"
           inkscape:connector-curvature="0" />
        <path
           id="path6170"
           d="m 424.46787,724.56319 -8.02953,2.1517 -8.02816,2.15033 5.87783,5.87782 5.87644,5.87644 2.15171,-8.02676 2.15171,-8.02953 z m -1.31064,1.31063 -1.48327,5.52703 -1.48051,5.52704 -4.04514,-4.04515 -4.04653,-4.04653 5.52703,-1.4805 5.52842,-1.48189 z"
           style="fill:#f5f5f5"
           inkscape:connector-curvature="0" />
        <path
           inkscape:connector-curvature="0"
           style="fill:#f5f5f5"
           d="m 378.2665,770.43076 2.1517,-8.02953 2.15033,-8.02815 5.87783,5.87783 5.87644,5.87643 -8.02677,2.15172 -8.02953,2.1517 z m 1.31064,-1.31064 5.52703,-1.48327 5.52703,-1.4805 -4.04514,-4.04515 -4.04653,-4.04653 -1.48051,5.52704 -1.48188,5.52841 z"
           id="path6172" />
        <path
           id="path6174"
           d="m 378.38948,724.34474 8.02953,2.1517 8.02815,2.15033 -5.87782,5.87782 -5.87644,5.87644 -2.15171,-8.02676 -2.15171,-8.02953 z m 1.31064,1.31063 1.48327,5.52703 1.4805,5.52704 4.04515,-4.04515 4.04653,-4.04653 -5.52703,-1.48051 -5.52842,-1.48188 z"
           style="fill:#f5f5f5"
           inkscape:connector-curvature="0" />
        <path
           inkscape:connector-curvature="0"
           style="fill:#f5f5f5"
           d="m 424.51803,770.80708 -2.15171,-8.02953 -2.15032,-8.02815 -5.87783,5.87783 -5.87644,5.87644 8.02677,2.15171 8.02953,2.1517 z m -1.31064,-1.31063 -5.52703,-1.48327 -5.52703,-1.48051 4.04514,-4.04514 4.04653,-4.04654 1.48052,5.52703 1.48187,5.52843 z"
           id="path6176" />
        <path
           id="path6178"
           d="m 401.25126,721.35749 -3.34519,5.79435 -3.34519,5.79278 6.69038,0 6.6888,0 -3.34361,-5.79278 -3.34519,-5.79435 z m 0,1.49182 2.30139,3.98971 2.30296,3.98814 -4.60435,0 -4.60593,0 2.30297,-3.98814 2.30296,-3.98971 z"
           style="fill:#f5f5f5"
           inkscape:connector-curvature="0" />
        <path
           inkscape:connector-curvature="0"
           style="fill:#f5f5f5"
           d="m 401.25126,774.13576 -3.34519,-5.79435 -3.34519,-5.79278 6.69038,0 6.6888,0 -3.34361,5.79278 -3.34519,5.79435 z m 0,-1.49182 2.30139,-3.98971 2.30296,-3.98814 -4.60435,0 -4.60593,0 2.30297,3.98814 2.30296,3.98971 z"
           id="path6180" />
        <path
           id="path6182"
           d="m 374.95842,747.06784 5.79435,-3.34519 5.79278,-3.34519 0,6.69038 0,6.68881 -5.79278,-3.34362 -5.79435,-3.34519 z m 1.49182,0 3.9897,2.30139 3.98814,2.30296 0,-4.60435 0,-4.60592 -3.98814,2.30295 -3.9897,2.30297 z"
           style="fill:#f5f5f5"
           inkscape:connector-curvature="0" />
        <path
           inkscape:connector-curvature="0"
           style="fill:#f5f5f5"
           d="m 427.27386,747.60515 -5.79435,-3.34519 -5.79278,-3.34519 0,6.69038 0,6.68881 5.79278,-3.34362 5.79435,-3.34519 z m -1.49182,0 -3.9897,2.30139 -3.98814,2.30296 0,-4.60435 0,-4.60593 3.98814,2.30296 3.9897,2.30297 z"
           id="path6184" />
        <path
           inkscape:connector-curvature="0"
           style="fill:#f5f5f5"
           d="m 419.91097,729.08725 -6.46264,1.73182 -6.46152,1.73071 4.73081,4.73081 4.7297,4.7297 1.73182,-6.46041 1.73183,-6.46263 z m -1.05488,1.05487 -1.19383,4.44848 -1.1916,4.44848 -3.25576,-3.25577 -3.25688,-3.25688 4.44847,-1.19159 4.4496,-1.19272 z"
           id="path6186" />
        <path
           id="path6188"
           d="m 382.72543,766.00413 1.73181,-6.46263 1.73071,-6.46152 4.73082,4.73082 4.7297,4.72969 -6.46041,1.73183 -6.46263,1.73181 z m 1.05487,-1.05488 4.44848,-1.19382 4.44847,-1.19159 -3.25576,-3.25577 -3.25688,-3.25688 -1.1916,4.44848 -1.19271,4.44958 z"
           style="fill:#f5f5f5"
           inkscape:connector-curvature="0" />
        <path
           inkscape:connector-curvature="0"
           style="fill:#f5f5f5"
           d="m 382.82441,728.91143 6.46263,1.73181 6.46152,1.73072 -4.73081,4.73081 -4.7297,4.72969 -1.73182,-6.4604 -1.73182,-6.46263 z m 1.05488,1.05487 1.19382,4.44848 1.19159,4.44848 3.25577,-3.25577 3.25688,-3.25688 -4.44847,-1.1916 -4.44959,-1.19271 z"
           id="path6190" />
        <path
           id="path6192"
           d="m 419.95134,766.30702 -1.73182,-6.46264 -1.73071,-6.46152 -4.73081,4.73082 -4.7297,4.7297 6.46041,1.73182 6.46263,1.73182 z m -1.05488,-1.05488 -4.44848,-1.19382 -4.44847,-1.1916 3.25576,-3.25576 3.25688,-3.25689 1.19161,4.44847 1.1927,4.4496 z"
           style="fill:#f5f5f5"
           inkscape:connector-curvature="0" />
        <path
           inkscape:connector-curvature="0"
           style="fill:#f5f5f5"
           d="m 401.21333,728.76592 -2.40607,4.16765 -2.40607,4.16653 4.81214,0 4.811,0 -2.40493,-4.16653 -2.40607,-4.16765 z m 0,1.07301 1.6553,2.86964 1.65643,2.86852 -3.31173,0 -3.31287,0 1.65643,-2.86852 1.65644,-2.86964 z"
           id="path6194" />
        <path
           id="path6196"
           d="m 401.21333,766.72733 -2.40607,-4.16765 -2.40607,-4.16653 4.81214,0 4.811,0 -2.40493,4.16653 -2.40607,4.16765 z m 0,-1.07301 1.6553,-2.86964 1.65643,-2.86852 -3.31173,0 -3.31287,0 1.65643,2.86852 1.65644,2.86964 z"
           style="fill:#f5f5f5"
           inkscape:connector-curvature="0" />
        <path
           inkscape:connector-curvature="0"
           style="fill:#f5f5f5"
           d="m 382.30188,747.2584 4.16766,-2.40607 4.16652,-2.40607 0,4.81214 0,4.81101 -4.16652,-2.40494 -4.16766,-2.40607 z m 1.07301,0 2.86964,1.6553 2.86852,1.65644 0,-3.31174 0,-3.31286 -2.86852,1.65642 -2.86964,1.65644 z"
           id="path6198" />
        <path
           id="path6200"
           d="m 419.9304,747.64487 -4.16766,-2.40607 -4.16652,-2.40607 0,4.81214 0,4.81101 4.16652,-2.40494 4.16766,-2.40607 z m -1.07301,0 -2.86964,1.6553 -2.86852,1.65643 0,-3.31173 0,-3.31287 2.86852,1.65643 2.86964,1.65644 z"
           style="fill:#f5f5f5"
           inkscape:connector-curvature="0" />
        <path
           id="path6202"
           d="m 414.63455,734.32564 -4.64833,1.24563 -4.64753,1.24484 3.40269,3.40269 3.4019,3.4019 1.24563,-4.64673 1.24564,-4.64833 z m -0.75873,0.75873 -0.85868,3.19962 -0.85707,3.19963 -2.34175,-2.34176 -2.34255,-2.34255 3.19962,-0.85706 3.20043,-0.85788 z"
           style="fill:#f5f5f5"
           inkscape:connector-curvature="0" />
        <path
           inkscape:connector-curvature="0"
           style="fill:#f5f5f5"
           d="m 387.8884,760.87856 1.24562,-4.64833 1.24484,-4.64752 3.4027,3.4027 3.40189,3.40188 -4.64673,1.24564 -4.64832,1.24563 z m 0.75872,-0.75874 3.19963,-0.85867 3.19961,-0.85706 -2.34174,-2.34175 -2.34255,-2.34255 -0.85707,3.19962 -0.85788,3.20041 z"
           id="path6204" />
        <path
           id="path6206"
           d="m 387.95959,734.19918 4.64832,1.24563 4.64753,1.24484 -3.40269,3.40269 -3.4019,3.40189 -1.24563,-4.64672 -1.24563,-4.64833 z m 0.75873,0.75873 0.85867,3.19962 0.85707,3.19963 2.34175,-2.34176 2.34255,-2.34255 -3.19961,-0.85707 -3.20043,-0.85787 z"
           style="fill:#f5f5f5"
           inkscape:connector-curvature="0" />
        <path
           inkscape:connector-curvature="0"
           style="fill:#f5f5f5"
           d="m 414.66359,761.09642 -1.24563,-4.64834 -1.24484,-4.64752 -3.40269,3.4027 -3.4019,3.40189 4.64673,1.24563 4.64833,1.24564 z m -0.75874,-0.75874 -3.19962,-0.85867 -3.19962,-0.85707 2.34175,-2.34175 2.34255,-2.34255 0.85708,3.19961 0.85786,3.20043 z"
           id="path6208" />
      </g>
      <g
         id="g6210"
         transform="matrix(0.73530514,0,0,0.73530514,342.83413,162.54255)"
         style="fill:#f5f5f5">
        <path
           id="path6212"
           d="m 401.28402,714.95931 -4.15625,7.19922 -4.15625,7.19727 8.3125,0 8.31054,0 -4.15429,-7.19727 -4.15625,-7.19922 z m 0,1.85352 2.85937,4.95703 2.86133,4.95508 -5.7207,0 -5.72266,0 2.86133,-4.95508 2.86133,-4.95703 z"
           style="fill:#f5f5f5"
           inkscape:connector-curvature="0" />
        <path
           inkscape:connector-curvature="0"
           style="fill:#f5f5f5"
           d="m 401.28402,780.53394 -4.15625,-7.19922 -4.15625,-7.19727 8.3125,0 8.31054,0 -4.15429,7.19727 -4.15625,7.19922 z m 0,-1.85352 2.85937,-4.95703 2.86133,-4.95508 -5.7207,0 -5.72266,0 2.86133,4.95508 2.86133,4.95703 z"
           id="path6214" />
        <path
           id="path6216"
           d="m 368.61634,746.90327 7.19922,-4.15625 7.19727,-4.15625 0,8.3125 0,8.31054 -7.19727,-4.15429 -7.19922,-4.15625 z m 1.85352,0 4.95703,2.85937 4.95508,2.86133 0,-5.7207 0,-5.72266 -4.95508,2.86132 -4.95703,2.86134 z"
           style="fill:#f5f5f5"
           inkscape:connector-curvature="0" />
        <path
           inkscape:connector-curvature="0"
           style="fill:#f5f5f5"
           d="m 433.61594,747.57085 -7.19922,-4.15625 -7.19727,-4.15625 0,8.3125 0,8.31054 7.19727,-4.15429 7.19922,-4.15625 z m -1.85352,0 -4.95703,2.85937 -4.95508,2.86133 0,-5.7207 0,-5.72266 4.95508,2.86132 4.95703,2.86134 z"
           id="path6218" />
        <path
           inkscape:connector-curvature="0"
           style="fill:#f5f5f5"
           d="m 424.46787,724.56319 -8.02953,2.1517 -8.02816,2.15033 5.87783,5.87782 5.87644,5.87644 2.15171,-8.02676 2.15171,-8.02953 z m -1.31064,1.31063 -1.48327,5.52703 -1.48051,5.52704 -4.04514,-4.04515 -4.04653,-4.04653 5.52703,-1.4805 5.52842,-1.48189 z"
           id="path6220" />
        <path
           id="path6222"
           d="m 378.2665,770.43076 2.1517,-8.02953 2.15033,-8.02815 5.87783,5.87783 5.87644,5.87643 -8.02677,2.15172 -8.02953,2.1517 z m 1.31064,-1.31064 5.52703,-1.48327 5.52703,-1.4805 -4.04514,-4.04515 -4.04653,-4.04653 -1.48051,5.52704 -1.48188,5.52841 z"
           style="fill:#f5f5f5"
           inkscape:connector-curvature="0" />
        <path
           inkscape:connector-curvature="0"
           style="fill:#f5f5f5"
           d="m 378.38948,724.34474 8.02953,2.1517 8.02815,2.15033 -5.87782,5.87782 -5.87644,5.87644 -2.15171,-8.02676 -2.15171,-8.02953 z m 1.31064,1.31063 1.48327,5.52703 1.4805,5.52704 4.04515,-4.04515 4.04653,-4.04653 -5.52703,-1.48051 -5.52842,-1.48188 z"
           id="path6224" />
        <path
           id="path6226"
           d="m 424.51803,770.80708 -2.15171,-8.02953 -2.15032,-8.02815 -5.87783,5.87783 -5.87644,5.87644 8.02677,2.15171 8.02953,2.1517 z m -1.31064,-1.31063 -5.52703,-1.48327 -5.52703,-1.48051 4.04514,-4.04514 4.04653,-4.04654 1.48052,5.52703 1.48187,5.52843 z"
           style="fill:#f5f5f5"
           inkscape:connector-curvature="0" />
        <path
           inkscape:connector-curvature="0"
           style="fill:#f5f5f5"
           d="m 401.25126,721.35749 -3.34519,5.79435 -3.34519,5.79278 6.69038,0 6.6888,0 -3.34361,-5.79278 -3.34519,-5.79435 z m 0,1.49182 2.30139,3.98971 2.30296,3.98814 -4.60435,0 -4.60593,0 2.30297,-3.98814 2.30296,-3.98971 z"
           id="path6228" />
        <path
           id="path6230"
           d="m 401.25126,774.13576 -3.34519,-5.79435 -3.34519,-5.79278 6.69038,0 6.6888,0 -3.34361,5.79278 -3.34519,5.79435 z m 0,-1.49182 2.30139,-3.98971 2.30296,-3.98814 -4.60435,0 -4.60593,0 2.30297,3.98814 2.30296,3.98971 z"
           style="fill:#f5f5f5"
           inkscape:connector-curvature="0" />
        <path
           inkscape:connector-curvature="0"
           style="fill:#f5f5f5"
           d="m 374.95842,747.06784 5.79435,-3.34519 5.79278,-3.34519 0,6.69038 0,6.68881 -5.79278,-3.34362 -5.79435,-3.34519 z m 1.49182,0 3.9897,2.30139 3.98814,2.30296 0,-4.60435 0,-4.60592 -3.98814,2.30295 -3.9897,2.30297 z"
           id="path6232" />
        <path
           id="path6234"
           d="m 427.27386,747.60515 -5.79435,-3.34519 -5.79278,-3.34519 0,6.69038 0,6.68881 5.79278,-3.34362 5.79435,-3.34519 z m -1.49182,0 -3.9897,2.30139 -3.98814,2.30296 0,-4.60435 0,-4.60593 3.98814,2.30296 3.9897,2.30297 z"
           style="fill:#f5f5f5"
           inkscape:connector-curvature="0" />
        <path
           id="path6236"
           d="m 419.91097,729.08725 -6.46264,1.73182 -6.46152,1.73071 4.73081,4.73081 4.7297,4.7297 1.73182,-6.46041 1.73183,-6.46263 z m -1.05488,1.05487 -1.19383,4.44848 -1.1916,4.44848 -3.25576,-3.25577 -3.25688,-3.25688 4.44847,-1.19159 4.4496,-1.19272 z"
           style="fill:#f5f5f5"
           inkscape:connector-curvature="0" />
        <path
           inkscape:connector-curvature="0"
           style="fill:#f5f5f5"
           d="m 382.72543,766.00413 1.73181,-6.46263 1.73071,-6.46152 4.73082,4.73082 4.7297,4.72969 -6.46041,1.73183 -6.46263,1.73181 z m 1.05487,-1.05488 4.44848,-1.19382 4.44847,-1.19159 -3.25576,-3.25577 -3.25688,-3.25688 -1.1916,4.44848 -1.19271,4.44958 z"
           id="path6238" />
        <path
           id="path6240"
           d="m 382.82441,728.91143 6.46263,1.73181 6.46152,1.73072 -4.73081,4.73081 -4.7297,4.72969 -1.73182,-6.4604 -1.73182,-6.46263 z m 1.05488,1.05487 1.19382,4.44848 1.19159,4.44848 3.25577,-3.25577 3.25688,-3.25688 -4.44847,-1.1916 -4.44959,-1.19271 z"
           style="fill:#f5f5f5"
           inkscape:connector-curvature="0" />
        <path
           inkscape:connector-curvature="0"
           style="fill:#f5f5f5"
           d="m 419.95134,766.30702 -1.73182,-6.46264 -1.73071,-6.46152 -4.73081,4.73082 -4.7297,4.7297 6.46041,1.73182 6.46263,1.73182 z m -1.05488,-1.05488 -4.44848,-1.19382 -4.44847,-1.1916 3.25576,-3.25576 3.25688,-3.25689 1.19161,4.44847 1.1927,4.4496 z"
           id="path6242" />
        <path
           id="path6244"
           d="m 401.21333,728.76592 -2.40607,4.16765 -2.40607,4.16653 4.81214,0 4.811,0 -2.40493,-4.16653 -2.40607,-4.16765 z m 0,1.07301 1.6553,2.86964 1.65643,2.86852 -3.31173,0 -3.31287,0 1.65643,-2.86852 1.65644,-2.86964 z"
           style="fill:#f5f5f5"
           inkscape:connector-curvature="0" />
        <path
           inkscape:connector-curvature="0"
           style="fill:#f5f5f5"
           d="m 401.21333,766.72733 -2.40607,-4.16765 -2.40607,-4.16653 4.81214,0 4.811,0 -2.40493,4.16653 -2.40607,4.16765 z m 0,-1.07301 1.6553,-2.86964 1.65643,-2.86852 -3.31173,0 -3.31287,0 1.65643,2.86852 1.65644,2.86964 z"
           id="path6246" />
        <path
           id="path6248"
           d="m 382.30188,747.2584 4.16766,-2.40607 4.16652,-2.40607 0,4.81214 0,4.81101 -4.16652,-2.40494 -4.16766,-2.40607 z m 1.07301,0 2.86964,1.6553 2.86852,1.65644 0,-3.31174 0,-3.31286 -2.86852,1.65642 -2.86964,1.65644 z"
           style="fill:#f5f5f5"
           inkscape:connector-curvature="0" />
        <path
           inkscape:connector-curvature="0"
           style="fill:#f5f5f5"
           d="m 419.9304,747.64487 -4.16766,-2.40607 -4.16652,-2.40607 0,4.81214 0,4.81101 4.16652,-2.40494 4.16766,-2.40607 z m -1.07301,0 -2.86964,1.6553 -2.86852,1.65643 0,-3.31173 0,-3.31287 2.86852,1.65643 2.86964,1.65644 z"
           id="path6250" />
        <path
           inkscape:connector-curvature="0"
           style="fill:#f5f5f5"
           d="m 414.63455,734.32564 -4.64833,1.24563 -4.64753,1.24484 3.40269,3.40269 3.4019,3.4019 1.24563,-4.64673 1.24564,-4.64833 z m -0.75873,0.75873 -0.85868,3.19962 -0.85707,3.19963 -2.34175,-2.34176 -2.34255,-2.34255 3.19962,-0.85706 3.20043,-0.85788 z"
           id="path6252" />
        <path
           id="path6254"
           d="m 387.8884,760.87856 1.24562,-4.64833 1.24484,-4.64752 3.4027,3.4027 3.40189,3.40188 -4.64673,1.24564 -4.64832,1.24563 z m 0.75872,-0.75874 3.19963,-0.85867 3.19961,-0.85706 -2.34174,-2.34175 -2.34255,-2.34255 -0.85707,3.19962 -0.85788,3.20041 z"
           style="fill:#f5f5f5"
           inkscape:connector-curvature="0" />
        <path
           inkscape:connector-curvature="0"
           style="fill:#f5f5f5"
           d="m 387.95959,734.19918 4.64832,1.24563 4.64753,1.24484 -3.40269,3.40269 -3.4019,3.40189 -1.24563,-4.64672 -1.24563,-4.64833 z m 0.75873,0.75873 0.85867,3.19962 0.85707,3.19963 2.34175,-2.34176 2.34255,-2.34255 -3.19961,-0.85707 -3.20043,-0.85787 z"
           id="path6256" />
        <path
           id="path6258"
           d="m 414.66359,761.09642 -1.24563,-4.64834 -1.24484,-4.64752 -3.40269,3.4027 -3.4019,3.40189 4.64673,1.24563 4.64833,1.24564 z m -0.75874,-0.75874 -3.19962,-0.85867 -3.19962,-0.85707 2.34175,-2.34175 2.34255,-2.34255 0.85708,3.19961 0.85786,3.20043 z"
           style="fill:#f5f5f5"
           inkscape:connector-curvature="0" />
      </g>
    </g>
    <rect
       style="fill:none;stroke:none"
       id="rect6495"
       width="231.83089"
       height="231.83089"
       x="224.08458"
       y="396.44675"
       ry="13.633467" />
  </g>
</svg>
